HIERARCHY
ROOT Hips
{
	OFFSET 0.00000 0.00000 0.00000
	CHANNELS 6 Xposition Yposition Zposition Zrotation Yrotation Xrotation 
	JOINT LHipJoint
	{
		OFFSET 0 0 0
		CHANNELS 3 Zrotation Yrotation Xrotation
		JOINT LeftHip
		{
			OFFSET 1.48416 -1.82041 0.59464
			CHANNELS 3 Zrotation Yrotation Xrotation
			JOINT LeftKnee
			{
				OFFSET 2.43280 -6.68407 0.00000
				CHANNELS 3 Zrotation Yrotation Xrotation
				JOINT LeftAnkle
				{
					OFFSET 2.68325 -7.37216 0.00000
					CHANNELS 3 Zrotation Yrotation Xrotation
					JOINT LeftToe
					{
						OFFSET 0.15365 -0.42214 1.91990
						CHANNELS 3 Zrotation Yrotation Xrotation
						End Site
						{
							OFFSET 0.00000 -0.00000 0.99320
						}
					}
				}
			}
		}
	}
	JOINT RHipJoint
	{
		OFFSET 0 0 0
		CHANNELS 3 Zrotation Yrotation Xrotation
		JOINT RightHip
		{
			OFFSET -1.70852 -1.82040 0.59464
			CHANNELS 3 Zrotation Yrotation Xrotation
			JOINT RightKnee
			{
				OFFSET -2.50396 -6.87957 0.00000
				CHANNELS 3 Zrotation Yrotation Xrotation
				JOINT RightAnkle
				{
					OFFSET -2.67204 -7.34139 0.00000
					CHANNELS 3 Zrotation Yrotation Xrotation
					JOINT RightToe
					{
						OFFSET -0.17346 -0.47657 2.02009
						CHANNELS 3 Zrotation Yrotation Xrotation
						End Site
						{
							OFFSET -0.00000 -0.00000 1.04609
						}
					}
				}
			}
		}
	}
	JOINT lowerback
	{
		OFFSET 0 0 0
		CHANNELS 3 Zrotation Yrotation Xrotation
		JOINT Chest
		{
			OFFSET -0.01022 1.99636 -0.30653
			CHANNELS 3 Zrotation Yrotation Xrotation
			JOINT Chest2
			{
				OFFSET -0.01683 2.01212 0.04808
				CHANNELS 3 Zrotation Yrotation Xrotation
				JOINT lowerneck
				{
					OFFSET 0 0 0
					CHANNELS 3 Zrotation Yrotation Xrotation
					JOINT Neck
					{
						OFFSET -0.03080 1.91178 0.03911
						CHANNELS 3 Zrotation Yrotation Xrotation
						JOINT Head
						{
							OFFSET 0.10605 1.89839 -0.23433
							CHANNELS 3 Zrotation Yrotation Xrotation
							End Site
							{
								OFFSET 0.03474 1.92469 -0.08609
							}
						}
					}
				}
				JOINT LeftCollar
				{
					OFFSET 0 0 0
					CHANNELS 3 Zrotation Yrotation Xrotation
					JOINT LeftShoulder
					{
						OFFSET 3.78977 1.27972 -0.24661
CHANNELS 3 Zrotation Xrotation Yrotation
						JOINT LeftElbow
						{
OFFSET 0 -5.641470 -0.000000
CHANNELS 3 Zrotation Xrotation Yrotation
							JOINT LeftWrist
							{
OFFSET 0 -2.864440 -0.000000
CHANNELS 3 Zrotation Xrotation Yrotation
								JOINT lhand
								{
									OFFSET 0 0 0
CHANNELS 3 Zrotation Xrotation Yrotation
									JOINT LFingers
									{
OFFSET 0 -0.722120 -0.000000
CHANNELS 3 Zrotation Xrotation Yrotation
										End Site
										{
OFFSET 0 -0.582190 -0.000000
										}
									}
								}
								JOINT LThumb
								{
OFFSET 0 0.000000 0.000000
CHANNELS 3 Zrotation Xrotation Yrotation
									End Site
									{
OFFSET 0 -0.591080 0.591080
									}
								}
							}
						}
					}
				}
				JOINT RightCollar
				{
					OFFSET 0 0 0
					CHANNELS 3 Zrotation Yrotation Xrotation
					JOINT RightShoulder
					{
						OFFSET -3.41176 1.18605 -0.57927
CHANNELS 3 Zrotation Xrotation Yrotation
						JOINT RightElbow
						{
OFFSET 0 -5.447290 -0.000000
CHANNELS 3 Zrotation Xrotation Yrotation
							JOINT RightWrist
							{
OFFSET 0 -3.088210 -0.000000
CHANNELS 3 Zrotation Xrotation Yrotation
								JOINT rhand
								{
									OFFSET 0 0 0
CHANNELS 3 Zrotation Xrotation Yrotation
									JOINT RFingers
									{
OFFSET 0 -0.821050 -0.000000
CHANNELS 3 Zrotation Xrotation Yrotation
										End Site
										{
OFFSET 0 -0.661950 -0.000000
										}
									}
								}
								JOINT RThumb
								{
OFFSET 0 0.000000 0.000000
CHANNELS 3 Zrotation Xrotation Yrotation
									End Site
									{
OFFSET 0 -0.672060 0.672060
									}
								}
							}
						}
					}
				}
			}
		}
	}
}
MOTION
Frames: 6
Frame Time: 0.008333333333333333
3.252485 17.776250 0.362997 -20.457217 87.956975 -19.883152 0.000000 0.000000 0.000000 0.000000 0.000000 0.000000 0.000000 0.000000 0.000000 0.000000 0.000000 0.000000 0.000000 0.000000 0.000000 0.000000 0.000000 0.000000 19.455455 1.548501 0.241136 -0.567105 -4.823133 13.404637 -0.684523 4.549080 -14.752748 -0.201453 2.889801 -7.972137 2.626980 -0.038474 1.625927 -0.792144 -0.010507 0.597492 -2.285079 -0.001261 -0.299728 -5.110594 -5.229735 -3.788608 8.122108 -7.029795 3.081902 3.326302 -3.382630 2.192277 0.000000 0.000000 0.000000 5.706057 4.556232 -31.266123 9.109315 -15.334425 1.228877 5.101416 -13.561806 -10.655489 0.000000 0.000000 0.000000 -7.125000 0.000000 0.000000 -19.095539 39.926596 -2.493525 0.000000 0.000000 0.000000 -5.479245 4.077386 23.521827 -14.087321 -22.859492 -2.861909 -0.907168 22.659289 -11.018707 0.000000 0.000000 0.000000 7.125000 0.000000 0.000000 18.261279 19.214764 11.847268
3.259745 17.767808 0.371402 -21.334250 88.126479 -20.884050 0.000000 0.000000 0.000000 0.000000 0.000000 0.000000 0.000000 0.000000 0.000000 0.000000 0.000000 0.000000 0.000000 0.000000 0.000000 0.000000 0.000000 0.000000 19.459780 1.382950 0.469381 -0.558974 -4.788784 13.307189 -0.693815 4.584809 -14.853105 -0.207463 2.932778 -8.091648 2.504476 -0.023458 1.865954 -0.837187 0.013675 0.622571 -2.263106 0.009840 -0.407065 -5.086249 -5.275582 -3.722536 8.172730 -7.102832 3.194619 3.337158 -3.417127 2.224593 0.000000 0.000000 0.000000 5.264743 6.761561 -29.467565 10.834418 -18.033911 1.724369 6.386280 -16.893523 -11.085345 0.000000 0.000000 0.000000 -7.125000 0.000000 0.000000 -18.138603 40.444858 -2.116903 0.000000 0.000000 0.000000 -4.550064 5.872585 19.449929 -14.217489 -23.044811 -2.912743 -1.467824 21.396590 -10.609927 0.000000 0.000000 0.000000 7.125000 0.000000 0.000000 17.924825 19.593771 11.444634
3.256950 17.767188 0.382412 -25.024046 88.265615 -24.588330 0.000000 0.000000 0.000000 0.000000 0.000000 0.000000 0.000000 0.000000 0.000000 0.000000 0.000000 0.000000 0.000000 0.000000 0.000000 0.000000 0.000000 0.000000 19.571276 1.341887 0.494173 -0.556939 -4.780432 13.283469 -0.698788 4.483385 -14.912327 -0.133256 2.351403 -6.478059 2.522565 0.006545 2.046624 -0.877843 0.058580 0.573046 -2.316374 0.029596 -0.556466 -5.078031 -5.269249 -3.523617 8.208114 -7.103012 3.211770 3.352407 -3.420137 2.195259 0.000000 0.000000 0.000000 5.019643 7.901428 -28.632857 12.406830 -20.411776 2.242292 6.923518 -18.525682 -11.204660 0.000000 0.000000 0.000000 -7.125000 0.000000 0.000000 -17.717987 40.605809 -1.991021 0.000000 0.000000 0.000000 -3.805285 7.311933 18.164234 -15.079578 -24.256764 -3.258611 -1.684413 18.934421 -9.814985 0.000000 0.000000 0.000000 7.125000 0.000000 0.000000 17.863013 20.347153 11.081166
3.247778 17.763280 0.392314 -33.572776 88.265650 -33.168290 0.000000 0.000000 0.000000 0.000000 0.000000 0.000000 0.000000 0.000000 0.000000 0.000000 0.000000 0.000000 0.000000 0.000000 0.000000 0.000000 0.000000 0.000000 19.885586 1.464074 0.792866 -0.524400 -4.640765 12.886895 -0.702183 4.267965 -14.962001 -0.132446 2.345060 -6.460357 2.694477 0.052359 2.222442 -0.836806 0.128192 0.553659 -2.373130 0.062334 -0.670387 -5.192766 -5.294116 -3.365857 8.354552 -7.136691 3.122061 3.427323 -3.439635 2.152404 0.000000 0.000000 0.000000 4.760014 7.818483 -27.554821 13.525751 -22.052499 2.647513 7.176062 -18.922597 -11.532255 0.000000 0.000000 0.000000 -7.125000 0.000000 0.000000 -17.596619 40.942008 -1.825077 0.000000 0.000000 0.000000 -3.208457 8.079128 17.786541 -15.980109 -25.493660 -3.637419 -1.870980 17.894053 -9.758624 0.000000 0.000000 0.000000 7.125000 0.000000 0.000000 17.741153 20.397992 10.976268
3.240376 17.770548 0.394084 -27.924772 88.399058 -27.650409 0.000000 0.000000 0.000000 0.000000 0.000000 0.000000 0.000000 0.000000 0.000000 0.000000 0.000000 0.000000 0.000000 0.000000 0.000000 0.000000 0.000000 0.000000 19.647666 1.406656 0.589065 -0.562169 -4.802457 13.346017 -0.707810 4.304369 -15.021376 -0.156882 2.549351 -7.026613 2.542868 0.077335 2.428117 -0.956448 0.162762 0.513114 -2.412582 0.077208 -0.825117 -5.273328 -5.293327 -3.115987 8.481900 -7.147945 3.178665 3.492107 -3.447980 2.136860 0.000000 0.000000 0.000000 4.739537 7.377668 -27.843113 14.182554 -22.995026 2.899093 8.494092 -20.554372 -10.482898 0.000000 0.000000 0.000000 -7.125000 0.000000 0.000000 -16.191124 40.045021 -2.039357 0.000000 0.000000 0.000000 -2.835252 8.181024 18.238502 -16.522518 -26.223963 -3.873960 -3.197543 16.583805 -9.419417 0.000000 0.000000 0.000000 7.125000 0.000000 0.000000 16.862382 20.700327 10.259680
3.233155 17.767804 0.398735 -26.680543 88.367759 -26.508985 0.000000 0.000000 0.000000 0.000000 0.000000 0.000000 0.000000 0.000000 0.000000 0.000000 0.000000 0.000000 0.000000 0.000000 0.000000 0.000000 0.000000 0.000000 19.651262 1.359150 0.729859 -0.556201 -4.777196 13.274078 -0.708037 4.348146 -15.021590 -0.165587 2.620758 -7.224728 2.506066 0.131817 2.518416 -0.987069 0.236614 0.541342 -2.426050 0.114488 -0.842341 -5.249153 -5.356381 -3.044329 8.506637 -7.238466 3.208420 3.493914 -3.493136 2.140774 0.000000 0.000000 0.000000 4.829452 6.579751 -28.343114 14.749384 -23.795768 3.124157 9.241235 -21.764526 -10.276171 0.000000 0.000000 0.000000 -7.125000 0.000000 0.000000 -15.505049 39.906069 -2.002575 0.000000 0.000000 0.000000 -2.478700 7.642578 18.202476 -16.850129 -26.659781 -4.019869 -3.413048 16.038660 -9.319341 0.000000 0.000000 0.000000 7.125000 0.000000 0.000000 16.723377 20.792430 10.130741
